<?xml version="1.0" encoding="UTF-8"?>
<svg id="Ebene_1" data-name="Ebene 1" xmlns="http://www.w3.org/2000/svg" viewBox="0 0 576 512">
  <defs>
    <style>
      .cls-1 {
        fill: #fff;
      }
    </style>
  </defs>
  <path class="cls-1" d="M528.12,301.32l47.27-208c3.41-15.02-8-29.32-23.4-29.32H159.21l-9.17-44.81C147.76,8.02,137.93,0,126.53,0H24C10.74,0,0,10.74,0,24v16c0,13.26,10.74,24,24,24H93.88l70.25,343.43c-16.81,9.67-28.13,27.79-28.13,48.57,0,30.93,25.07,56,56,56s56-25.07,56-56c0-15.67-6.45-29.83-16.82-40h209.65c-10.38,10.17-16.82,24.33-16.82,40,0,30.93,25.07,56,56,56s56-25.07,56-56c0-22.17-12.89-41.33-31.58-50.4l5.52-24.28c3.41-15.02-8-29.32-23.4-29.32H218.12l-6.54-32H504.72c11.21,0,20.92-7.75,23.4-18.68Z"/>
</svg>