<svg width="221" height="112" viewBox="0 0 221 112" fill="none" xmlns="http://www.w3.org/2000/svg">
<path d="M214.647 82.2556C214.647 81.6838 214.759 81.1176 214.978 80.5893C215.197 80.061 215.517 79.581 215.922 79.1767C216.326 78.7724 216.806 78.4517 217.334 78.233C217.863 78.0143 218.429 77.9018 219.001 77.9021V69.1864C217.854 69.1703 216.76 68.7035 215.955 67.8871C215.15 67.0707 214.699 65.9703 214.699 64.8238C214.699 63.6773 215.15 62.5769 215.955 61.7605C216.76 60.9441 217.854 60.4774 219.001 60.4612V51.7456C217.855 51.7294 216.763 51.2632 215.958 50.4476C215.154 49.632 214.703 48.5327 214.703 47.3873C214.703 46.242 215.154 45.1426 215.958 44.327C216.763 43.5114 217.855 43.0452 219.001 43.0291V34.3108C217.855 34.2947 216.763 33.8284 215.958 33.0128C215.154 32.1972 214.703 31.0979 214.703 29.9525C214.703 28.8072 215.154 27.7078 215.958 26.8923C216.763 26.0767 217.855 25.6104 219.001 25.5943V21.2321C208.51 21.2321 200.002 12.7241 200.002 2.22479H21.3872C21.3872 12.7241 12.8792 21.2321 2.37988 21.2321V25.5943C2.95738 25.5861 3.53074 25.6929 4.06664 25.9082C4.60254 26.1236 5.0903 26.4433 5.50156 26.8488C5.91282 27.2544 6.23939 27.7375 6.46229 28.2704C6.68519 28.8032 6.79998 29.375 6.79998 29.9525C6.79998 30.5301 6.68519 31.1019 6.46229 31.6347C6.23939 32.1675 5.91282 32.6507 5.50156 33.0562C5.0903 33.4617 4.60254 33.7815 4.06664 33.9968C3.53074 34.2122 2.95738 34.3189 2.37988 34.3108V43.0291C2.95738 43.0209 3.53074 43.1276 4.06664 43.343C4.60254 43.5584 5.0903 43.8781 5.50156 44.2836C5.91282 44.6891 6.23939 45.1723 6.46229 45.7051C6.68519 46.238 6.79998 46.8098 6.79998 47.3873C6.79998 47.9649 6.68519 48.5367 6.46229 49.0695C6.23939 49.6023 5.91282 50.0855 5.50156 50.491C5.0903 50.8965 4.60254 51.2162 4.06664 51.4316C3.53074 51.647 2.95738 51.7537 2.37988 51.7456V60.4612C2.95795 60.4531 3.53188 60.5599 4.06831 60.7755C4.60473 60.9911 5.09297 61.3111 5.50463 61.7171C5.9163 62.123 6.2432 62.6066 6.46631 63.14C6.68943 63.6733 6.80433 64.2457 6.80433 64.8238C6.80433 65.4019 6.68943 65.9743 6.46631 66.5076C6.2432 67.041 5.9163 67.5247 5.50463 67.9306C5.09297 68.3365 4.60473 68.6565 4.06831 68.8721C3.53188 69.0877 2.95795 69.1945 2.37988 69.1864V77.9021C2.95738 77.8939 3.53074 78.0006 4.06664 78.216C4.60254 78.4314 5.0903 78.7511 5.50156 79.1566C5.91282 79.5621 6.23939 80.0453 6.46229 80.5781C6.68519 81.111 6.79998 81.6828 6.79998 82.2603C6.79998 82.8379 6.68519 83.4097 6.46229 83.9425C6.23939 84.4753 5.91282 84.9585 5.50156 85.364C5.0903 85.7695 4.60254 86.0893 4.06664 86.3046C3.53074 86.52 2.95738 86.6267 2.37988 86.6186V90.9678C12.8792 90.9678 21.3872 99.4845 21.3872 109.975H200.002C200.002 99.4845 208.51 90.9678 219.001 90.9678V86.6143C217.846 86.6129 216.738 86.1531 215.922 85.3358C215.106 84.5185 214.647 83.4107 214.647 82.2556V82.2556Z" stroke="white" stroke-width="3" stroke-linecap="round" stroke-linejoin="round"/>
<path d="M179.938 96H41.062C35.5049 96 31 91.5001 31 85.9493V27.0507C31 21.4999 35.5049 17 41.062 17H179.938C185.495 17 190 21.4999 190 27.0507V85.9493C190 91.5001 185.495 96 179.938 96Z" stroke="white" stroke-width="3" stroke-linecap="round" stroke-linejoin="round"/>
</svg>
