<svg width="71" height="121" viewBox="0 0 71 121" fill="none" xmlns="http://www.w3.org/2000/svg">
<path d="M69.5 38.415C69.5 43.4148 67.3797 50.955 64.0527 59.6242C60.7488 68.2334 56.3346 77.7597 51.9073 86.6501C47.4822 95.5361 43.0555 103.764 39.7341 109.772C38.0738 112.776 36.6904 115.223 35.7227 116.918C35.6458 117.053 35.5716 117.183 35.5 117.308C35.4284 117.183 35.3542 117.053 35.2773 116.918C34.3096 115.223 32.9262 112.776 31.2659 109.772C27.9445 103.764 23.5178 95.5361 19.0927 86.6501C14.6654 77.7597 10.2512 68.2334 6.94729 59.6242C3.62031 50.955 1.5 43.4148 1.5 38.415C1.5 17.9137 16.8316 1.5 35.5 1.5C54.1684 1.5 69.5 17.9137 69.5 38.415Z" stroke="white" stroke-width="3"/>
<circle cx="35.5" cy="35.5" r="13" stroke="white" stroke-width="3"/>
</svg>
