<svg width="1500" height="600" viewBox="0 0 1500 600" fill="none" xmlns="http://www.w3.org/2000/svg">
<path d="M420.902 189.28C420.454 162.4 398.502 140.448 371.622 140.448C344.294 140.448 322.342 162.848 322.342 189.728C322.342 197.792 324.134 205.408 327.718 212.128C327.718 212.576 328.166 213.024 328.166 213.472C331.302 218.848 404.774 343.84 407.462 349.216C408.358 351.008 407.91 351.904 406.566 353.248C404.774 354.592 402.982 354.592 401.638 352.8C399.846 350.112 351.462 266.336 326.374 223.328C305.766 187.936 267.238 137.312 196.454 140.448C148.07 143.136 108.198 177.632 106.406 230.944C103.27 309.792 149.862 373.856 209.446 415.52C268.582 457.632 329.062 467.04 373.414 435.68C417.766 403.872 420.902 351.008 420.902 279.328C420.902 208.096 420.902 189.28 420.902 189.28Z" fill="#1E1E1E"/>
<path d="M620.293 454.048C706.757 454.048 777.093 384.16 777.093 297.248C777.093 210.784 706.757 140.448 620.293 140.448C533.381 140.448 463.493 210.784 463.493 297.248C463.493 384.16 533.381 454.048 620.293 454.048Z" fill="#1E1E1E"/>
<path d="M959.94 230.496C960.836 227.36 961.284 224.224 961.732 220.64C961.732 220.64 961.732 220.64 961.732 220.192C962.18 217.504 962.18 214.816 962.18 211.68C962.18 172.256 930.372 140 890.5 140C851.076 140 819.268 172.256 819.268 211.68V417.312C819.268 437.92 835.396 454.048 856.004 454.048C867.652 454.048 877.956 449.12 884.676 440.608C887.364 437.472 889.604 433.44 890.948 429.408C916.484 380.576 949.188 280.224 959.94 230.496Z" fill="#1E1E1E"/>
<path d="M1318.01 248.416C1318.01 177.184 1264.7 140.896 1212.73 140.896C1160.76 140.896 1054.14 140.896 1054.14 140.896C1026.81 140.896 1004.86 162.848 1004.86 190.624C1004.86 217.952 1026.81 239.904 1054.14 239.904C1062.65 239.904 1070.71 238.112 1077.43 234.08C1081.91 232.288 1212.73 155.232 1213.62 154.784C1214.52 153.888 1216.76 152.544 1218.55 155.232C1220.34 157.92 1217.66 159.712 1217.66 159.712L1056.82 254.688C1025.46 273.504 1004.86 307.552 1004.86 346.976C1004.86 406.112 1052.79 454.048 1111.93 454.048C1113.27 454.048 1114.17 454.048 1115.06 454.048C1250.81 452.256 1318.01 318.752 1318.01 248.416Z" fill="#1E1E1E"/>
<path d="M1314.5 429.856C1314.5 418.805 1318.52 411.04 1323.89 406.56C1329.27 402.08 1335.69 399.84 1343.16 399.84C1350.92 399.84 1357.49 402.08 1362.87 406.56C1368.55 411.04 1373 418.805 1373 429.856C1373 440.608 1368.55 448.373 1362.87 453.152C1357.49 457.931 1350.92 460.32 1343.16 460.32C1335.69 460.32 1329.27 457.931 1323.89 453.152C1318.52 448.373 1314.5 440.608 1314.5 429.856Z" fill="#1E1E1E"/>
</svg>
