<svg width="24" height="24" viewBox="0 0 24 24" fill="none" xmlns="http://www.w3.org/2000/svg">
<g clip-path="url(#clip0_215_291)">
<g clip-path="url(#clip1_215_291)">
<path fill-rule="evenodd" clip-rule="evenodd" d="M23.7255 0.173629C23.8114 0.244033 23.8805 0.332628 23.928 0.433016C23.9755 0.533405 24.0001 0.643083 24 0.754129V21.7541C23.9999 21.9275 23.9398 22.0954 23.8298 22.2294C23.7199 22.3634 23.567 22.4552 23.397 22.4891L15.897 23.9891C15.8 24.0084 15.7 24.0084 15.603 23.9891L8.25 22.5191L0.897 23.9891C0.788233 24.0109 0.675998 24.0082 0.568381 23.9814C0.460764 23.9545 0.360444 23.9041 0.274649 23.8338C0.188854 23.7635 0.11972 23.675 0.0722277 23.5748C0.0247353 23.4746 6.69791e-05 23.365 0 23.2541L0 2.25413C0.000104673 2.08081 0.0602342 1.91288 0.170165 1.77888C0.280096 1.64489 0.433042 1.5531 0.603 1.51913L8.103 0.0191292C8.20004 -0.000266915 8.29996 -0.000266915 8.397 0.0191292L15.75 1.48913L23.103 0.0191292C23.2117 -0.00274708 23.324 -0.000236813 23.4316 0.0264792C23.5392 0.0531952 23.6396 0.103452 23.7255 0.173629ZM15 2.86913L9 1.66913V21.1391L15 22.3391V2.86913ZM16.5 22.3391L22.5 21.1391V1.66913L16.5 2.86913V22.3391ZM7.5 21.1391V1.66913L1.5 2.86913V22.3391L7.5 21.1391Z" fill="white"/>
</g>
</g>
<defs>
<clipPath id="clip0_215_291">
<rect width="24" height="24" fill="white"/>
</clipPath>
<clipPath id="clip1_215_291">
<rect width="24" height="24" fill="white"/>
</clipPath>
</defs>
</svg>
