<?xml version="1.0" encoding="utf-8"?>
<!-- Generator: Adobe Illustrator 27.0.1, SVG Export Plug-In . SVG Version: 6.00 Build 0)  -->
<svg version="1.1" id="Ebene_1" xmlns="http://www.w3.org/2000/svg" xmlns:xlink="http://www.w3.org/1999/xlink" x="0px" y="0px"
	 viewBox="0 0 482 512" style="enable-background:new 0 0 482 512;" xml:space="preserve">
<style type="text/css">
	.st0{fill:#FFFFFF;}
</style>
<path class="st0" d="M128,0c35.4,0,64,28.6,64,64s-28.6,64-64,64S64,99.3,64,64S92.7,0,128,0 M247.3,354.2l-48-192
	C196.6,151.5,187,144,176,144h-11.4c-22.7,10.4-49.6,10.9-73.3,0H80c-11,0-20.6,7.5-23.3,18.2l-48,192C4.9,369.3,16.4,384,32,384h56
	v104c0,13.3,10.8,24,24,24h32c13.3,0,24-10.7,24-24V384h56C239.6,384,251.1,369.3,247.3,354.2L247.3,354.2z"/>
<path class="st0" d="M376-0.1c35.4,0,64,28.6,64,64s-28.6,64-64,64s-64-28.7-64-64S340.6-0.1,376-0.1 M424,143.9h-11.4
	c-22.7,10.4-49.6,10.9-73.3,0H328c-26.5,0-48,21.5-48,48v136c0,13.3,10.7,24,24,24h16v136c0,13.3,10.7,24,24,24h64
	c13.3,0,24-10.7,24-24v-136h16c13.3,0,24-10.7,24-24v-136C472,165.4,450.5,143.9,424,143.9L424,143.9z"/>
</svg>
