<?xml version="1.0" standalone="no"?>
<!DOCTYPE svg PUBLIC "-//W3C//DTD SVG 20010904//EN"
 "http://www.w3.org/TR/2001/REC-SVG-20010904/DTD/svg10.dtd">
<svg version="1.0" xmlns="http://www.w3.org/2000/svg"
 width="2000.000000pt" height="2000.000000pt" viewBox="0 0 2000.000000 2000.000000"
 preserveAspectRatio="xMidYMid meet">
<metadata>
Created by potrace 1.14, written by Peter Selinger 2001-2017
</metadata>
<g transform="translate(0.000000,2000.000000) scale(0.100000,-0.100000)"
fill="#000000" stroke="none">
<path d="M4989 18656 c-2 -2 -60 -7 -129 -10 -69 -3 -147 -8 -175 -11 -119
-11 -154 -15 -186 -19 -19 -3 -70 -10 -114 -16 -111 -15 -296 -47 -380 -66
-38 -8 -90 -20 -114 -25 -25 -5 -97 -23 -160 -40 -796 -212 -1503 -587 -2088
-1107 -155 -138 -350 -337 -458 -467 -28 -33 -53 -62 -56 -65 -17 -15 -186
-240 -251 -335 -177 -259 -358 -593 -466 -860 -29 -71 -57 -139 -62 -150 -5
-11 -22 -58 -39 -105 -26 -75 -45 -133 -96 -301 -37 -120 -108 -428 -130 -566
-28 -177 -40 -263 -50 -378 -4 -44 -9 -88 -11 -98 -26 -142 -25 -1020 1 -1372
11 -150 16 -212 19 -240 3 -16 7 -61 11 -100 7 -76 13 -130 20 -185 3 -19 7
-55 10 -80 3 -25 7 -58 10 -75 3 -16 7 -48 10 -70 3 -22 10 -65 15 -95 5 -30
12 -73 15 -95 2 -22 10 -65 16 -95 6 -30 13 -68 15 -85 3 -16 14 -73 24 -125
11 -52 21 -106 24 -120 3 -14 12 -59 21 -100 9 -41 19 -85 21 -98 11 -56 99
-391 145 -550 50 -174 181 -580 198 -617 6 -11 22 -54 36 -95 41 -117 176
-454 186 -464 5 -6 9 -15 9 -22 0 -21 190 -431 306 -660 94 -186 165 -316 316
-584 160 -282 413 -670 661 -1013 107 -148 351 -469 391 -514 6 -7 16 -18 21
-25 16 -21 197 -241 221 -268 43 -51 169 -195 179 -206 5 -6 44 -49 85 -95
218 -242 585 -618 800 -819 25 -23 72 -68 105 -99 33 -31 123 -113 200 -181
77 -69 142 -127 145 -130 13 -13 280 -237 400 -336 311 -255 675 -531 1000
-755 207 -143 319 -219 325 -219 4 0 24 -13 44 -28 33 -26 69 -49 254 -166
105 -65 409 -247 467 -279 30 -17 93 -52 139 -79 46 -26 86 -48 88 -48 2 0 41
-21 86 -47 78 -44 590 -303 600 -303 3 0 51 -22 108 -49 111 -52 376 -165 524
-224 420 -167 919 -325 1310 -415 126 -30 313 -69 355 -76 19 -3 46 -8 60 -11
14 -3 68 -12 120 -21 52 -8 106 -17 120 -20 60 -10 336 -42 425 -49 22 -2 81
-7 130 -11 185 -17 878 -10 1040 11 17 2 62 6 100 10 39 4 77 9 86 10 9 2 40
6 70 10 30 3 106 15 169 27 63 11 125 22 138 24 53 10 75 14 217 48 83 19 211
53 285 76 74 22 140 42 145 43 29 8 154 51 180 62 17 7 80 31 140 55 61 24
148 60 193 81 46 22 86 39 88 39 10 0 299 149 384 197 281 160 628 405 856
603 294 256 553 529 757 800 31 41 61 80 67 87 11 13 123 181 192 288 243 378
500 943 645 1420 54 177 130 453 149 539 3 11 7 30 9 41 3 11 7 29 10 40 13
54 65 296 70 326 3 19 10 57 15 84 6 28 13 61 15 75 10 50 32 182 40 235 3 23
7 52 10 65 4 21 23 152 30 207 2 13 6 40 9 60 3 21 8 61 11 88 3 28 7 59 9 70
4 22 15 123 30 278 3 32 8 77 11 100 5 46 12 123 20 232 3 39 8 89 10 113 2
23 7 82 10 130 3 48 8 114 10 148 5 60 10 149 20 359 3 61 8 148 10 195 5 92
16 407 20 585 13 468 17 1411 17 3810 0 2448 -2 2908 -17 2983 -1 10 -7 45
-11 77 -4 33 -8 62 -9 65 -1 3 -5 25 -9 50 -59 336 -209 700 -418 1014 -105
157 -349 425 -503 553 -77 64 -235 176 -303 217 -30 17 -68 39 -85 50 -148 88
-446 210 -612 252 -16 4 -34 8 -40 10 -74 22 -229 52 -315 60 -36 3 -82 9
-102 14 -48 10 -426 10 -503 0 -33 -5 -87 -11 -120 -15 -112 -12 -415 -83
-490 -114 -11 -5 -65 -26 -120 -47 -230 -87 -487 -236 -695 -400 -89 -71 -306
-283 -378 -369 -206 -248 -371 -538 -481 -848 -46 -129 -108 -397 -125 -542
-24 -199 -24 -502 -1 -665 25 -171 52 -297 87 -415 12 -38 22 -72 23 -75 1 -3
4 -12 8 -20 3 -8 11 -33 18 -55 37 -121 145 -347 257 -539 45 -76 82 -141 82
-143 0 -2 16 -29 35 -59 19 -30 35 -56 35 -59 0 -3 19 -35 42 -72 22 -38 49
-83 60 -101 26 -46 183 -315 257 -440 33 -57 61 -108 61 -113 0 -5 5 -9 10 -9
6 0 10 -4 10 -8 0 -10 431 -750 461 -794 11 -14 19 -29 19 -32 0 -4 11 -23 23
-44 13 -20 35 -57 49 -82 14 -25 77 -133 140 -240 115 -196 516 -879 548 -935
31 -54 796 -1359 829 -1413 17 -29 31 -55 31 -57 0 -2 22 -40 50 -84 27 -44
50 -83 50 -86 0 -3 9 -18 19 -33 10 -15 83 -137 161 -272 162 -279 159 -274
230 -395 29 -49 60 -103 70 -120 9 -16 94 -162 189 -324 94 -161 171 -295 171
-298 0 -2 16 -27 35 -56 19 -28 35 -56 35 -61 0 -5 6 -17 14 -25 7 -9 27 -41
43 -71 17 -30 85 -149 153 -265 67 -115 130 -223 138 -240 8 -16 23 -41 32
-55 9 -14 34 -56 55 -95 21 -38 51 -93 67 -121 56 -101 47 -158 -37 -232 -70
-62 -150 -71 -214 -25 -21 15 -302 463 -328 523 -7 15 -174 300 -193 330 -6 8
-13 22 -17 30 -4 8 -17 32 -30 53 -23 36 -1323 2261 -1368 2342 -13 22 -82
141 -154 264 -72 123 -131 225 -131 227 0 3 -12 23 -26 46 -33 51 -330 560
-356 608 -10 19 -27 49 -37 65 -19 32 -152 258 -181 310 -10 16 -47 81 -84
143 -36 62 -77 132 -90 155 -13 23 -88 152 -166 287 -250 429 -520 893 -764
1315 -131 226 -247 422 -257 437 -10 15 -19 29 -19 32 0 2 -37 64 -81 138 -45
73 -89 145 -98 160 -107 179 -423 653 -487 731 -7 9 -14 20 -14 23 0 4 -12 20
-26 38 -14 17 -78 101 -141 186 -287 383 -553 690 -893 1030 -113 113 -232
230 -265 260 -232 211 -367 324 -565 473 -63 48 -119 90 -125 95 -34 25 -157
111 -262 181 -335 223 -729 436 -1068 578 -71 29 -139 58 -150 62 -214 90
-763 262 -945 295 -14 2 -47 9 -75 16 -46 10 -219 44 -290 55 -16 3 -41 7 -55
10 -14 3 -47 7 -75 11 -27 3 -59 8 -70 10 -20 4 -62 10 -150 19 -27 3 -68 7
-90 10 -22 2 -76 7 -120 11 -44 3 -96 8 -115 10 -46 6 -756 15 -761 10z"/>
<path d="M18427 4404 c-1 -1 -27 -5 -57 -8 -171 -20 -313 -63 -478 -143 -370
-179 -645 -537 -742 -963 -34 -152 -44 -242 -44 -415 0 -191 18 -330 67 -506
94 -335 319 -640 607 -820 47 -30 164 -91 180 -95 3 0 16 -5 30 -11 96 -40
231 -75 350 -90 73 -10 351 -10 419 0 507 71 881 338 1088 777 30 63 88 227
97 272 2 13 11 55 20 93 23 110 31 198 31 365 0 162 -7 268 -24 358 -93 480
-357 847 -751 1042 -128 64 -299 115 -455 135 -46 7 -332 14 -338 9z"/>
</g>
</svg>
